# xmcd CD database file
#
# Track frame offsets:
#	150
#	22628
#	47190
#	70600
#	98408
#	118078
#	142535
#	170135
#	192495
#	209958
#	229995
#
# Disc length: 3359 seconds
#
# Revision: 0
# Processed by: cddbd v1.5.1PL0 Copyright (c) Steve Scherf et al.
# Submitted via: CDex 1.51
#
DISCID=960d1d0b
DTITLE=広瀬香美 - LOVEBIRD
DYEAR=2004
DGENRE=JPop
TTITLE0=明日に向かって架ける橋
TTITLE1=The Shining Story
TTITLE2=白いブーツ
TTITLE3=日付変更線
TTITLE4=失恋日和
TTITLE5=sayonara
TTITLE6=冬の色
TTITLE7=歌いたいの
TTITLE8=What a hot winter!!
TTITLE9=眠れぬ夜の小夜曲
TTITLE10=日付変更線-acoustic version-
EXTD=YEAR: 2004
EXTT0=
EXTT1=
EXTT2=
EXTT3=
EXTT4=
EXTT5=
EXTT6=
EXTT7=
EXTT8=
EXTT9=
EXTT10=
PLAYORDER=
